<svg width="95" height="24" viewBox="0 0 95 24" fill="none" xmlns="http://www.w3.org/2000/svg">
<g clip-path="url(#clip0_25_5)">
<path d="M15.387 4.82V20H11.431V4.82H15.387ZM5.635 4.82V20H1.679V4.82H5.635ZM13.547 10.823V13.882H3.611V10.823H13.547Z" fill="#478EFF"/>
<path d="M24.0163 20.23C22.9276 20.23 21.954 19.9923 21.0953 19.517C20.252 19.0417 19.5926 18.3593 19.1173 17.47C18.642 16.5653 18.4043 15.492 18.4043 14.25C18.4043 13.008 18.642 11.9423 19.1173 11.053C19.5926 10.1483 20.2443 9.45833 21.0723 8.983C21.9003 8.50767 22.8433 8.27 23.9013 8.27C24.9746 8.27 25.887 8.5 26.6383 8.96C27.405 9.42 27.9876 10.0487 28.3863 10.846C28.785 11.628 28.9843 12.5097 28.9843 13.491C28.9843 13.7517 28.9766 13.9893 28.9613 14.204C28.946 14.4187 28.923 14.6103 28.8923 14.779H19.6003V13.146H28.0873L27.1443 13.33C27.1443 12.226 26.8376 11.375 26.2243 10.777C25.6263 10.179 24.8366 9.88 23.8553 9.88C23.104 9.88 22.4523 10.0563 21.9003 10.409C21.3636 10.7463 20.942 11.2447 20.6353 11.904C20.344 12.548 20.1983 13.33 20.1983 14.25C20.1983 15.1547 20.3516 15.9367 20.6583 16.596C20.965 17.2553 21.3943 17.7613 21.9463 18.114C22.5136 18.4513 23.1883 18.62 23.9703 18.62C24.8136 18.62 25.496 18.459 26.0173 18.137C26.554 17.815 26.9833 17.378 27.3053 16.826L28.7543 17.677C28.463 18.1983 28.0873 18.6507 27.6273 19.034C27.1826 19.4173 26.6536 19.7163 26.0403 19.931C25.4423 20.1303 24.7676 20.23 24.0163 20.23ZM42.5807 8.5L37.6127 13.468L37.1757 13.905L33.4037 17.677V15.377L40.2577 8.5H42.5807ZM34.3237 3.21V20H32.4837V3.21H34.3237ZM37.7737 12.525L42.8567 20H40.6257L36.2327 13.56L37.7737 12.525ZM48.2475 5.234V16.826C48.2475 17.3933 48.4085 17.815 48.7305 18.091C49.0525 18.367 49.4665 18.505 49.9725 18.505C50.4172 18.505 50.8005 18.4283 51.1225 18.275C51.4445 18.1217 51.7359 17.9147 51.9965 17.654L52.6405 19.195C52.2879 19.517 51.8662 19.77 51.3755 19.954C50.9002 20.138 50.3482 20.23 49.7195 20.23C49.1369 20.23 48.5925 20.1303 48.0865 19.931C47.5805 19.7163 47.1742 19.3867 46.8675 18.942C46.5762 18.482 46.4229 17.884 46.4075 17.148V5.74L48.2475 5.234ZM52.4335 8.5V10.087H44.1075V8.5H52.4335ZM59.9303 8.27C61.0189 8.27 61.9773 8.50767 62.8053 8.983C63.6486 9.45833 64.3079 10.1483 64.7833 11.053C65.2586 11.9423 65.4963 13.008 65.4963 14.25C65.4963 15.492 65.2586 16.5653 64.7833 17.47C64.3079 18.3593 63.6486 19.0417 62.8053 19.517C61.9773 19.9923 61.0189 20.23 59.9303 20.23C58.8569 20.23 57.8986 19.9923 57.0553 19.517C56.2119 19.0417 55.5526 18.3593 55.0773 17.47C54.6019 16.5653 54.3643 15.492 54.3643 14.25C54.3643 13.008 54.6019 11.9423 55.0773 11.053C55.5526 10.1483 56.2119 9.45833 57.0553 8.983C57.8986 8.50767 58.8569 8.27 59.9303 8.27ZM59.9303 9.857C59.1483 9.857 58.4813 10.0333 57.9293 10.386C57.3773 10.7387 56.9479 11.2447 56.6413 11.904C56.3499 12.548 56.2043 13.33 56.2043 14.25C56.2043 15.1547 56.3499 15.9367 56.6413 16.596C56.9479 17.2553 57.3773 17.7613 57.9293 18.114C58.4813 18.4667 59.1483 18.643 59.9303 18.643C60.7123 18.643 61.3793 18.4667 61.9313 18.114C62.4833 17.7613 62.9049 17.2553 63.1963 16.596C63.5029 15.9367 63.6563 15.1547 63.6563 14.25C63.6563 13.33 63.5029 12.548 63.1963 11.904C62.9049 11.2447 62.4833 10.7387 61.9313 10.386C61.3793 10.0333 60.7123 9.857 59.9303 9.857ZM68.9603 20V8.5H70.4553L70.7083 10.386C71.0303 9.68067 71.498 9.15167 72.1113 8.799C72.74 8.44633 73.499 8.27 74.3883 8.27C74.5876 8.27 74.8023 8.28533 75.0323 8.316C75.2776 8.34667 75.4846 8.408 75.6533 8.5L75.3313 10.179C75.1626 10.1177 74.9786 10.0717 74.7793 10.041C74.58 10.0103 74.2963 9.995 73.9283 9.995C73.453 9.995 72.97 10.133 72.4793 10.409C72.004 10.685 71.6053 11.1067 71.2833 11.674C70.9613 12.226 70.8003 12.9313 70.8003 13.79V20H68.9603ZM79.269 6.292C78.855 6.292 78.5176 6.16933 78.257 5.924C78.0116 5.66333 77.889 5.326 77.889 4.912C77.889 4.498 78.0116 4.16833 78.257 3.923C78.5176 3.66233 78.855 3.532 79.269 3.532C79.683 3.532 80.0126 3.66233 80.258 3.923C80.5186 4.16833 80.649 4.498 80.649 4.912C80.649 5.326 80.5186 5.66333 80.258 5.924C80.0126 6.16933 79.683 6.292 79.269 6.292ZM80.189 8.5V20H78.349V8.5H80.189ZM85.5623 8.5L88.9893 13.307L89.1043 13.468L93.8193 20H91.5653L88.0003 15.009L87.7933 14.756L83.2623 8.5H85.5623ZM93.7503 8.5L89.1963 14.641H89.0813L85.1253 20H82.9863L88.0003 13.399H88.1383L91.5883 8.5H93.7503Z" fill="#353535"/>
</g>
<defs>
<clipPath id="clip0_25_5">
<rect width="95" height="24" fill="white"/>
</clipPath>
</defs>
</svg>
